<?xml version="1.0" encoding="UTF-8" standalone="no"?>
<!-- Created with Inkscape (http://www.inkscape.org/) -->

<svg
   xmlns:dc="http://purl.org/dc/elements/1.1/"
   xmlns:cc="http://creativecommons.org/ns#"
   xmlns:rdf="http://www.w3.org/1999/02/22-rdf-syntax-ns#"
   xmlns:svg="http://www.w3.org/2000/svg"
   xmlns="http://www.w3.org/2000/svg"
   xmlns:sodipodi="http://sodipodi.sourceforge.net/DTD/sodipodi-0.dtd"
   xmlns:inkscape="http://www.inkscape.org/namespaces/inkscape"
   version="1.2"
   width="1076.6324"
   height="499.09033"
   id="svg2"
   inkscape:version="0.48.4 r9939"
   sodipodi:docname="headerlogo.svg"
   inkscape:export-filename="/home/adrian/Workspace/blobtec/bStation/html/static/img/headerlogo.png"
   inkscape:export-xdpi="16.770512"
   inkscape:export-ydpi="16.770512">
  <sodipodi:namedview
     pagecolor="#ffffff"
     bordercolor="#666666"
     borderopacity="1"
     objecttolerance="10"
     gridtolerance="10"
     guidetolerance="10"
     inkscape:pageopacity="0"
     inkscape:pageshadow="2"
     inkscape:window-width="1366"
     inkscape:window-height="744"
     id="namedview35"
     showgrid="false"
     fit-margin-top="0"
     fit-margin-left="0"
     fit-margin-right="0"
     fit-margin-bottom="0"
     inkscape:zoom="0.35713359"
     inkscape:cx="388.31622"
     inkscape:cy="330.40857"
     inkscape:window-x="0"
     inkscape:window-y="24"
     inkscape:window-maximized="1"
     inkscape:current-layer="svg2" />
  <defs
     id="defs4" />
  <metadata
     id="metadata7">
    <rdf:RDF>
      <cc:Work
         rdf:about="">
        <dc:format>image/svg+xml</dc:format>
        <dc:type
           rdf:resource="http://purl.org/dc/dcmitype/StillImage" />
        <dc:title></dc:title>
      </cc:Work>
    </rdf:RDF>
  </metadata>
  <flowRoot
     style="font-size:40px;font-style:normal;font-weight:normal;line-height:125%;letter-spacing:0px;word-spacing:0px;fill:#000000;fill-opacity:1;stroke:none;font-family:Sans"
     xml:space="preserve"
     id="flowRoot4234-9"
     transform="translate(320.83348,-319.86487)"><flowRegion
       id="flowRegion4236-2"><rect
         id="rect4238-7"
         y="-344.84998"
         x="18.182745"
         height="98.994949"
         width="169.70561" /></flowRegion><flowPara
       style="font-size:100px;font-style:normal;font-variant:normal;font-weight:bold;font-stretch:normal;letter-spacing:-19.2199955px;font-family:Consolas;-inkscape-font-specification:Consolas Bold"
       id="flowPara4240-9">tec</flowPara></flowRoot>  <text
     sodipodi:linespacing="125%"
     style="font-size:40px;font-style:normal;font-weight:normal;line-height:125%;letter-spacing:0px;word-spacing:0px;fill:#000000;fill-opacity:1;stroke:none;font-family:Sans"
     xml:space="preserve"
     id="text4369"
     y="-428.31839"
     x="-428.35736"><tspan
       id="tspan4371"
       y="-428.31839"
       x="-428.35736" /></text>
  <flowRoot
     style="font-size:40px;font-style:normal;font-weight:normal;line-height:125%;letter-spacing:0px;word-spacing:0px;fill:#000000;fill-opacity:1;stroke:none;font-family:Sans"
     xml:space="preserve"
     id="flowRoot4234-9-7"
     transform="matrix(0.98047146,0,0,0.98047146,-280.7337,462.51906)"><flowRegion
       id="flowRegion4236-2-9"><rect
         id="rect4238-7-3"
         y="-344.84998"
         x="18.182745"
         height="98.994949"
         width="169.70561" /></flowRegion><flowPara
       style="font-size:100px;font-style:normal;font-variant:normal;font-weight:bold;font-stretch:normal;letter-spacing:-19.2199955px;font-family:Consolas;-inkscape-font-specification:Consolas Bold"
       id="flowPara4240-9-1">tec</flowPara></flowRoot>  <g
     id="name_blob"
     transform="matrix(0.90321601,0,0,0.90321601,295.65963,-277.48079)">
    <path
       inkscape:connector-curvature="0"
       style="fill:#c8c8c8;fill-opacity:1;stroke:#000000;stroke-width:2.5;stroke-linecap:butt;stroke-linejoin:miter;stroke-miterlimit:4;stroke-opacity:1;stroke-dasharray:none"
       id="path3929-5"
       d="m 259.17544,362.19915 0,244.90625 c -2.54934,29.92618 40.75,28.73738 40.75,5.40625 51.44425,-2.22292 111.39436,-3.92177 113.46875,-94.5 1.99545,-87.13148 -54.7149,-77.31965 -111.46875,-76.875 l 0,-78.9375 c -2.12816,-37.57626 -44.66244,-34.65347 -42.75,0 z m 76.25,112.375 c 20.67726,-0.17726 33.96028,5.86296 33.53125,44.875 -0.54518,49.5733 -31.41733,54.26225 -68.28125,56.40625 l 1.46875,-99.71875 c 12.70896,-0.13402 23.8825,-1.48193 33.28125,-1.5625 z" />
    <path
       inkscape:connector-curvature="0"
       style="fill:#c8c8c8;fill-opacity:1;stroke:#000000;stroke-width:2.5;stroke-linecap:butt;stroke-linejoin:miter;stroke-miterlimit:4;stroke-opacity:1;stroke-dasharray:none;marker-start:none"
       id="path3929-1-0"
       d="m 420.39546,375.58359 0,219.54241 c 0.73364,35.07954 43.2105,33.96544 40.75129,0 l 2.02031,-218.02258 c 1.55965,-41.3138 -42.53681,-39.2128 -42.7716,-1.51983 z" />
    <path
       inkscape:connector-curvature="0"
       style="fill:#c8c8c8;fill-opacity:1;stroke:#000000;stroke-width:2.5;stroke-linecap:butt;stroke-linejoin:miter;stroke-miterlimit:4;stroke-opacity:1;stroke-dasharray:none"
       id="path3929-11-2"
       d="m 552.26617,434.02086 c -41.45079,-0.039 -81.35195,27.98945 -80.9375,90.78125 0.81288,123.15669 173.60393,120.90138 171.75,-3.25 -0.83044,-55.61189 -46.68747,-87.48976 -90.8125,-87.53125 z m 2.4375,41.8125 c 23.16687,0.0218 47.2515,16.7397 47.6875,45.9375 0.97337,65.18293 -89.76073,66.37944 -90.1875,1.71875 -0.2176,-32.96745 20.73718,-47.67672 42.5,-47.65625 z" />
    <path
       inkscape:connector-curvature="0"
       style="fill:#c8c8c8;fill-opacity:1;stroke:#000000;stroke-width:2.5;stroke-linecap:butt;stroke-linejoin:miter;stroke-miterlimit:4;stroke-opacity:1;stroke-dasharray:none"
       id="path3929-6-86"
       d="m 652.54947,359.37179 0,244.90625 c -2.54934,29.92618 40.75,28.73738 40.75,5.40625 51.44425,-2.22292 111.39436,-3.92177 113.46875,-94.5 1.99545,-87.13148 -54.7149,-77.31965 -111.46875,-76.875 l 0,-78.9375 c -2.12816,-37.57626 -44.66244,-34.65347 -42.75,0 z m 76.25,112.375 c 20.67726,-0.17726 33.96028,5.86296 33.53125,44.875 -0.54518,49.5733 -31.41733,54.26225 -68.28125,56.40625 l 1.46875,-99.71875 c 12.70896,-0.13402 23.8825,-1.48193 33.28125,-1.5625 z" />
  </g>
  <g
     id="name_tech"
     transform="matrix(0.90321601,0,0,0.90321601,295.65963,-277.48079)">
    <path
       inkscape:connector-curvature="0"
       style="font-size:74px;font-style:normal;font-variant:normal;font-weight:bold;font-stretch:normal;line-height:125%;letter-spacing:-10.57999802px;word-spacing:0px;fill:#000000;fill-opacity:1;stroke:none;font-family:Consolas;-inkscape-font-specification:Consolas Bold"
       id="path3002"
       d="m 454.76969,640.93854 0,11.49024 13.33301,0 0,9.25 -13.33301,0 0,17.16308 c -2e-5,1.87892 0.37335,3.15561 1.12012,3.83008 0.74672,0.6504 2.22817,0.9756 4.44434,0.97559 l 6.64843,0 0,9.25 -11.09277,0 c -5.10679,0 -8.73211,-1.0599 -10.87598,-3.17969 -2.1198,-2.14387 -3.17969,-5.7692 -3.17968,-10.87598 l 0,-17.16308 -6.43164,0 0,-9.25 6.43164,0 0,-11.49024 12.93554,0" />
    <path
       inkscape:connector-curvature="0"
       style="font-size:74px;font-style:normal;font-variant:normal;font-weight:bold;font-stretch:normal;line-height:125%;letter-spacing:-10.57999802px;word-spacing:0px;fill:#000000;fill-opacity:1;stroke:none;font-family:Consolas;-inkscape-font-specification:Consolas Bold"
       id="path3004"
       d="m 505.86841,672.55475 0,3.68555 -30.24317,0 c 0.31314,3.03517 1.40916,5.31154 3.28809,6.8291 1.87888,1.51759 4.50453,2.27638 7.87695,2.27637 2.72198,10e-6 5.5042,-0.39745 8.34668,-1.19238 2.8665,-0.819 5.8053,-2.04752 8.81641,-3.68555 l 0,9.97266 c -3.05929,1.15625 -6.11853,2.02343 -9.17774,2.60156 -3.05927,0.60221 -6.11852,0.90332 -9.17773,0.90332 -7.32294,0 -13.01987,-1.85482 -17.09082,-5.56445 -4.04688,-3.73372 -6.07032,-8.96093 -6.07031,-15.68164 -1e-5,-6.60024 1.98729,-11.79131 5.96191,-15.57325 3.99868,-3.78186 9.49087,-5.67281 16.47656,-5.67285 6.35934,4e-5 11.44202,1.91508 15.24805,5.74512 3.83003,3.83011 5.74507,8.94892 5.74512,15.35644 m -13.29688,-4.2998 c -3e-5,-2.457 -0.72269,-4.43226 -2.16797,-5.92578 -1.42125,-1.51755 -3.28811,-2.27634 -5.60058,-2.27637 -2.50524,3e-5 -4.54071,0.71065 -6.10645,2.13184 -1.56577,1.39716 -2.54136,3.4206 -2.92676,6.07031 l 16.80176,0" />
    <path
       inkscape:connector-curvature="0"
       style="font-size:74px;font-style:normal;font-variant:normal;font-weight:bold;font-stretch:normal;line-height:125%;letter-spacing:-10.57999802px;word-spacing:0px;fill:#000000;fill-opacity:1;stroke:none;font-family:Consolas;-inkscape-font-specification:Consolas Bold"
       id="path3006"
       d="m 537.74446,653.69343 0,10.55078 c -1.7585,-1.2044 -3.529,-2.09567 -5.31152,-2.67383 -1.7585,-0.57809 -3.58922,-0.86716 -5.49219,-0.86719 -3.6133,3e-5 -6.43166,1.05993 -8.45508,3.17969 -1.99936,2.09573 -2.99904,5.03453 -2.99902,8.81641 -2e-5,3.78191 0.99966,6.73276 2.99902,8.85253 2.02342,2.09572 4.84178,3.14357 8.45508,3.14356 2.02341,10e-6 3.93845,-0.3011 5.74512,-0.90332 1.83069,-0.6022 3.51689,-1.49348 5.05859,-2.67383 l 0,10.58692 c -2.02347,0.74674 -4.08304,1.30078 -6.17871,1.6621 -2.07164,0.38542 -4.1553,0.57813 -6.25097,0.57813 -7.29885,0 -13.00783,-1.86686 -17.12696,-5.60059 -4.11914,-3.7578 -6.17871,-8.97296 -6.17871,-15.6455 0,-6.6725 2.05957,-11.87562 6.17871,-15.60938 4.11913,-3.75777 9.82811,-5.63668 17.12696,-5.63672 2.11976,4e-5 4.20342,0.19275 6.25097,0.57813 2.07158,0.36137 4.13115,0.9154 6.17871,1.66211" />
    <path
       inkscape:connector-curvature="0"
       style="font-size:74px;font-style:normal;font-variant:normal;font-weight:bold;font-stretch:normal;line-height:125%;letter-spacing:-10.57999802px;word-spacing:0px;fill:#000000;fill-opacity:1;stroke:none;font-family:Consolas;-inkscape-font-specification:Consolas Bold"
       id="path3008"
       d="m 579.08732,668.25495 0,24.64258 -13.00781,0 0,-4.01074 0,-14.77832 c -4e-5,-3.541 -0.0844,-5.97394 -0.25293,-7.29883 -0.14457,-1.32485 -0.40954,-2.30043 -0.79492,-2.92676 -0.5059,-0.84307 -1.19242,-1.49346 -2.05957,-1.95117 -0.86722,-0.48174 -1.85485,-0.72263 -2.96289,-0.72266 -2.69795,3e-5 -4.81774,1.04788 -6.35938,3.14356 -1.54169,2.07164 -2.31252,4.95021 -2.3125,8.63574 l 0,19.90918 -12.93555,0 0,-56.22266 12.93555,0 0,21.67969 c 1.95115,-2.36064 4.02276,-4.09501 6.21484,-5.20313 2.19203,-1.13212 4.61293,-1.6982 7.2627,-1.69824 4.67314,4e-5 8.21415,1.43331 10.62305,4.29981 2.43289,2.86657 3.64936,7.03388 3.64941,12.50195" />
    <path
       inkscape:connector-curvature="0"
       style="font-size:74px;font-style:normal;font-variant:normal;font-weight:bold;font-stretch:normal;line-height:125%;letter-spacing:-10.57999802px;word-spacing:0px;fill:#000000;fill-opacity:1;stroke:none;font-family:Consolas;-inkscape-font-specification:Consolas Bold"
       id="path3010"
       d="m 621.26122,668.25495 0,24.64258 -13.00781,0 0,-4.01074 0,-14.85059 c -3e-5,-3.49282 -0.0843,-5.90167 -0.25293,-7.22656 -0.14456,-1.32485 -0.40954,-2.30043 -0.79492,-2.92676 -0.50589,-0.84307 -1.19241,-1.49346 -2.05957,-1.95117 -0.86722,-0.48174 -1.85485,-0.72263 -2.96289,-0.72266 -2.69794,3e-5 -4.81773,1.04788 -6.35938,3.14356 -1.54168,2.07164 -2.31251,4.95021 -2.3125,8.63574 l 0,19.90918 -12.93554,0 0,-40.46875 12.93554,0 0,5.92578 c 1.95116,-2.36064 4.02277,-4.09501 6.21485,-5.20313 2.19203,-1.13212 4.61292,-1.6982 7.26269,-1.69824 4.67314,4e-5 8.21416,1.43331 10.62305,4.29981 2.4329,2.86657 3.64937,7.03388 3.64941,12.50195" />
    <path
       inkscape:connector-curvature="0"
       style="font-size:74px;font-style:normal;font-variant:normal;font-weight:bold;font-stretch:normal;line-height:125%;letter-spacing:-10.57999802px;word-spacing:0px;fill:#000000;fill-opacity:1;stroke:none;font-family:Consolas;-inkscape-font-specification:Consolas Bold"
       id="path3012"
       d="m 642.00837,660.70319 c -2.86656,3e-5 -5.05861,1.03584 -6.57617,3.10742 -1.49351,2.04756 -2.24025,5.01044 -2.24023,8.88868 -2e-5,3.87827 0.74672,6.8532 2.24023,8.9248 1.51756,2.04754 3.70961,3.0713 6.57617,3.07129 2.81833,10e-6 4.97425,-1.02375 6.46777,-3.07129 1.49346,-2.0716 2.24021,-5.04653 2.24024,-8.9248 -3e-5,-3.87824 -0.74678,-6.84112 -2.24024,-8.88868 -1.49352,-2.07158 -3.64944,-3.10739 -6.46777,-3.10742 m 0,-9.25 c 6.96156,4e-5 12.39352,1.87895 16.2959,5.63672 3.92639,3.75785 5.8896,8.96097 5.88965,15.60938 -5e-5,6.64845 -1.96326,11.85157 -5.88965,15.60937 -3.90238,3.75781 -9.33434,5.63672 -16.2959,5.63672 -6.98569,0 -12.45379,-1.87891 -16.4043,-5.63672 -3.92643,-3.7578 -5.88965,-8.96092 -5.88964,-15.60937 -10e-6,-6.64841 1.96321,-11.85153 5.88964,-15.60938 3.95051,-3.75777 9.41861,-5.63668 16.4043,-5.63672" />
    <path
       inkscape:connector-curvature="0"
       style="font-size:74px;font-style:normal;font-variant:normal;font-weight:bold;font-stretch:normal;line-height:125%;letter-spacing:-10.57999802px;word-spacing:0px;fill:#000000;fill-opacity:1;stroke:none;font-family:Consolas;-inkscape-font-specification:Consolas Bold"
       id="path3014"
       d="m 663.0446,636.67487 12.93554,0 0,56.22266 -12.93554,0 0,-56.22266" />
    <path
       inkscape:connector-curvature="0"
       style="font-size:74px;font-style:normal;font-variant:normal;font-weight:bold;font-stretch:normal;line-height:125%;letter-spacing:-10.57999802px;word-spacing:0px;fill:#000000;fill-opacity:1;stroke:none;font-family:Consolas;-inkscape-font-specification:Consolas Bold"
       id="path3016"
       d="m 697.16088,660.70319 c -2.86656,3e-5 -5.05861,1.03584 -6.57617,3.10742 -1.49351,2.04756 -2.24025,5.01044 -2.24023,8.88868 -2e-5,3.87827 0.74672,6.8532 2.24023,8.9248 1.51756,2.04754 3.70961,3.0713 6.57617,3.07129 2.81833,10e-6 4.97426,-1.02375 6.46778,-3.07129 1.49345,-2.0716 2.2402,-5.04653 2.24023,-8.9248 -3e-5,-3.87824 -0.74678,-6.84112 -2.24023,-8.88868 -1.49352,-2.07158 -3.64945,-3.10739 -6.46778,-3.10742 m 0,-9.25 c 6.96156,4e-5 12.39352,1.87895 16.2959,5.63672 3.92639,3.75785 5.8896,8.96097 5.88965,15.60938 -5e-5,6.64845 -1.96326,11.85157 -5.88965,15.60937 -3.90238,3.75781 -9.33434,5.63672 -16.2959,5.63672 -6.98569,0 -12.45379,-1.87891 -16.40429,-5.63672 -3.92644,-3.7578 -5.88966,-8.96092 -5.88965,-15.60937 -10e-6,-6.64841 1.96321,-11.85153 5.88965,-15.60938 3.9505,-3.75777 9.4186,-5.63668 16.40429,-5.63672" />
    <path
       inkscape:connector-curvature="0"
       style="font-size:74px;font-style:normal;font-variant:normal;font-weight:bold;font-stretch:normal;line-height:125%;letter-spacing:-10.57999802px;word-spacing:0px;fill:#000000;fill-opacity:1;stroke:none;font-family:Consolas;-inkscape-font-specification:Consolas Bold"
       id="path3018"
       d="m 745.7303,686.03229 c -1.78259,2.36069 -3.7458,4.09506 -5.88965,5.20313 -2.14391,1.10807 -4.62503,1.66211 -7.44336,1.66211 -4.93817,0 -9.02117,-1.93913 -12.24903,-5.81738 -3.22787,-3.90234 -4.8418,-8.86457 -4.84179,-14.88672 -10e-6,-6.0462 1.61392,-10.99639 4.84179,-14.85059 3.22786,-3.87822 7.31086,-5.81734 12.24903,-5.81738 2.81833,4e-5 5.29945,0.55407 7.44336,1.66211 2.14385,1.10811 4.10706,2.85453 5.88965,5.23925 l 0,-5.99804 13.00781,0 0,36.38574 c -5e-5,6.5039 -2.05962,11.46614 -6.17871,14.88672 -4.09509,3.44465 -10.04496,5.16698 -17.84961,5.16699 -2.52932,-1e-5 -4.9743,-0.19272 -7.33496,-0.57812 -2.36069,-0.38544 -4.73341,-0.9756 -7.11817,-1.77051 l 0,-10.08106 c 2.26431,1.30078 4.48046,2.26432 6.64844,2.89063 2.16795,0.65038 4.34796,0.97558 6.54004,0.97558 4.23956,0 7.34698,-0.92741 9.32226,-2.78222 1.97523,-1.85482 2.96286,-4.75749 2.9629,-8.70801 l 0,-2.78223 m -8.52735,-25.18457 c -2.67385,4e-5 -4.75751,0.98766 -6.25098,2.96289 -1.4935,1.97529 -2.24025,4.76956 -2.24023,8.38282 -2e-5,3.70965 0.72264,6.52801 2.16797,8.45507 1.44529,1.90301 3.55304,2.85451 6.32324,2.8545 2.69789,10e-6 4.79359,-0.98762 6.28711,-2.96289 1.49346,-1.97525 2.2402,-4.75747 2.24024,-8.34668 -4e-5,-3.61326 -0.74678,-6.40753 -2.24024,-8.38282 -1.49352,-1.97523 -3.58922,-2.96285 -6.28711,-2.96289" />
    <path
       inkscape:connector-curvature="0"
       style="font-size:74px;font-style:normal;font-variant:normal;font-weight:bold;font-stretch:normal;line-height:125%;letter-spacing:-10.57999802px;word-spacing:0px;fill:#000000;fill-opacity:1;stroke:none;font-family:Consolas;-inkscape-font-specification:Consolas Bold"
       id="path3020"
       d="m 760.66007,652.42878 12.93555,0 0,40.46875 -12.93555,0 0,-40.46875 m 0,-15.75391 12.93555,0 0,10.55078 -12.93555,0 0,-10.55078" />
    <path
       inkscape:connector-curvature="0"
       style="font-size:74px;font-style:normal;font-variant:normal;font-weight:bold;font-stretch:normal;line-height:125%;letter-spacing:-10.57999802px;word-spacing:0px;fill:#000000;fill-opacity:1;stroke:none;font-family:Consolas;-inkscape-font-specification:Consolas Bold"
       id="path3022"
       d="m 815.91404,672.55475 0,3.68555 -30.24316,0 c 0.31313,3.03517 1.40916,5.31154 3.28808,6.8291 1.87889,1.51759 4.50454,2.27638 7.87696,2.27637 2.72197,10e-6 5.5042,-0.39745 8.34668,-1.19238 2.86649,-0.819 5.80529,-2.04752 8.8164,-3.68555 l 0,9.97266 c -3.05928,1.15625 -6.11853,2.02343 -9.17773,2.60156 -3.05928,0.60221 -6.11852,0.90332 -9.17774,0.90332 -7.32293,0 -13.01987,-1.85482 -17.09082,-5.56445 -4.04688,-3.73372 -6.07031,-8.96093 -6.07031,-15.68164 0,-6.60024 1.9873,-11.79131 5.96192,-15.57325 3.99868,-3.78186 9.49086,-5.67281 16.47656,-5.67285 6.35934,4e-5 11.44202,1.91508 15.24804,5.74512 3.83004,3.83011 5.74507,8.94892 5.74512,15.35644 m -13.29687,-4.2998 c -4e-5,-2.457 -0.72269,-4.43226 -2.16797,-5.92578 -1.42126,-1.51755 -3.28812,-2.27634 -5.60059,-2.27637 -2.50523,3e-5 -4.54071,0.71065 -6.10644,2.13184 -1.56578,1.39716 -2.54136,3.4206 -2.92676,6.07031 l 16.80176,0" />
    <path
       inkscape:connector-curvature="0"
       style="font-size:74px;font-style:normal;font-variant:normal;font-weight:bold;font-stretch:normal;line-height:125%;letter-spacing:-10.57999802px;word-spacing:0px;fill:#000000;fill-opacity:1;stroke:none;font-family:Consolas;-inkscape-font-specification:Consolas Bold"
       id="path3024"
       d="m 846.70613,653.69343 0,9.82812 c -2.77022,-1.15622 -5.44405,-2.0234 -8.02149,-2.60156 -2.5775,-0.57809 -5.01044,-0.86716 -7.29883,-0.86719 -2.45705,3e-5 -4.28778,0.31318 -5.49218,0.93945 -1.18036,0.60225 -1.77053,1.5417 -1.77051,2.81836 -2e-5,1.03584 0.44562,1.83076 1.33691,2.38477 0.91535,0.55406 2.54132,0.96357 4.87793,1.22852 l 2.27637,0.32519 c 6.62432,0.84312 11.08069,2.22821 13.36914,4.15527 2.28837,1.92711 3.43258,4.95022 3.43262,9.06934 -4e-5,4.31186 -1.58989,7.55176 -4.76953,9.71973 -3.17973,2.16797 -7.92516,3.25195 -14.23633,3.25195 -2.67385,0 -5.44403,-0.2168 -8.31055,-0.65039 -2.84246,-0.40951 -5.76921,-1.03581 -8.78027,-1.87891 l 0,-9.82812 c 2.57746,1.25261 5.21516,2.19206 7.91308,2.81836 2.72199,0.62631 5.48013,0.93946 8.27442,0.93945 2.52927,10e-6 4.43226,-0.34928 5.70898,-1.04785 1.27667,-0.69856 1.91501,-1.73437 1.91504,-3.10742 -3e-5,-1.15624 -0.44567,-2.01138 -1.33691,-2.56543 -0.86722,-0.57811 -2.61364,-1.02375 -5.23926,-1.33692 l -2.27637,-0.28906 c -5.75717,-0.72264 -9.792,-2.05955 -12.10449,-4.01074 -2.31251,-1.95115 -3.46876,-4.91404 -3.46875,-8.88867 -10e-6,-4.28773 1.46939,-7.46742 4.4082,-9.53907 2.93879,-2.07157 7.44335,-3.10738 13.51367,-3.10742 2.38475,4e-5 4.88995,0.18071 7.51563,0.54199 2.62562,0.36137 5.48011,0.92745 8.56348,1.69825" />
  </g>
  <path
     inkscape:connector-curvature="0"
     style="fill:#787878;fill-opacity:1;stroke:#000000;stroke-width:2.74584293;stroke-linecap:butt;stroke-linejoin:miter;stroke-miterlimit:4;stroke-opacity:1;stroke-dasharray:none"
     id="blob"
     d="M 127.10304,223.65899 C 10.808566,-13.60174 222.61132,1.096447 217.63305,52.972801 195.58435,282.73263 299.04818,60.155262 412.10574,209.79221 510.68854,340.27118 313.67027,334.73608 290.60138,366.48063 154.74734,553.426 203.90919,371.71443 170.8426,360.55279 -10.308087,299.40532 142.22416,254.50868 127.10304,223.65899 z" />
</svg>
